<?xml version="1.0" encoding="utf-8"?>
<!-- Generator: Adobe Illustrator 22.1.0, SVG Export Plug-In . SVG Version: 6.00 Build 0)  -->
<svg version="1.1" id="Layer_1" xmlns="http://www.w3.org/2000/svg" xmlns:xlink="http://www.w3.org/1999/xlink" x="0px" y="0px"
	 viewBox="0 0 800 351" style="enable-background:new 0 0 800 351;" xml:space="preserve">
<path d="M692.7,64c-105,0.8-188.8,20.1-227.8,31.5c-28.2,8.5-50,12.1-59.7,13.5c-3.4,0.4-7,0.4-10.4,0c-9.7-1.5-31.5-5.3-59.7-13.5
	C296.4,84.1,212.3,64.7,107.3,64c-98.4-0.6-95.3,19.5-89.1,38.7c7.4,23.1,114.9,185.4,212.5,185.4s138.7-109.9,138.7-109.9
	s7.8-25.2,29.4-24.3c0.4,0,1.7,0,1.9,0c21.6-0.6,29.4,24.3,29.4,24.3S471,288.2,568.8,288.2s205.3-162.4,212.5-185.4
	C787.9,83.5,791.1,63.2,692.7,64z M345.1,163.5c0,16.1-27.9,100.3-114.7,100.1C138,263.4,62.7,134.3,84.3,106.8s144-17.1,203.2,0
	S345.1,163.5,345.1,163.5z M567.8,263.7C481,263.9,453,179.6,453,163.5c0,0-1.7-39.4,57.6-56.5s181.6-27.5,203.2,0
	C735.2,134.3,660.1,263.4,567.8,263.7z"/>
</svg>
