<?xml version="1.0" encoding="utf-8"?>
<!-- Generator: Adobe Illustrator 22.1.0, SVG Export Plug-In . SVG Version: 6.00 Build 0)  -->
<svg version="1.1" id="Layer_1" xmlns="http://www.w3.org/2000/svg" xmlns:xlink="http://www.w3.org/1999/xlink" x="0px" y="0px"
	 viewBox="0 0 800 351" style="enable-background:new 0 0 800 351;" xml:space="preserve">
<path d="M606.9,22.3L606.9,22.3c-60.9,1-113.9,32.9-142.2,79.6c-0.5,0.7-7,16.4-18.9,10.4c-13.1-6.8-31.4-11.4-45.7-11.4
	s-32.7,4.6-45.7,11.4c-11.6,6-18.4-9.9-18.9-10.4c-28.3-46.9-81.3-78.6-142.2-79.6l0,0c0,0-105-10.4-182.1,12.8
	c0,0,2.9,84.4,12.3,158.7c0,0,0,0,0,0.2c7.3,81,79.1,144.6,166.6,144.6c88.5,0,160.8-64.8,166.9-147l0,0c0,0,1.9-28.5,10.6-40.1
	c8.5-11.4,32.4-10.4,32.4-10.4s23.9-1,32.4,10.4c8.5,11.4,10.6,40.1,10.6,40.1l0,0c6,82.2,78.4,147,166.9,147
	c87.6,0,159.4-63.6,166.6-144.6c0,0,0,0,0-0.2C786.1,119.5,789,35.1,789,35.1C711.6,11.9,606.9,22.3,606.9,22.3z M190.2,318.5
	c-80.8,0-146.3-61.9-146.3-138.3S109.4,41.9,190.2,41.9s146.3,61.9,146.3,138.3S271,318.5,190.2,318.5z M609.8,318.5
	c-80.8,0-146.3-61.9-146.3-138.3S529,41.9,609.8,41.9s146.3,61.9,146.3,138.3S690.6,318.5,609.8,318.5z"/>
</svg>
