<?xml version="1.0" encoding="utf-8"?>
<!-- Generator: Adobe Illustrator 22.1.0, SVG Export Plug-In . SVG Version: 6.00 Build 0)  -->
<svg version="1.1" id="Layer_1" xmlns="http://www.w3.org/2000/svg" xmlns:xlink="http://www.w3.org/1999/xlink" x="0px" y="0px"
	 viewBox="0 0 800 351" style="enable-background:new 0 0 800 351;" xml:space="preserve">
<path d="M781.9,106.5h-11.8c-3.5-13.5-9.9-29.1-21.5-43.5c-21.3-26.5-53.7-41.4-96.3-44.2c-19.2-1.4-39.3-1.7-59.6-0.7
	c-1.2-2.4-3.5-3.8-6.6-3.8l-167.9,8.5c-10.6,0.5-21.3,0.5-31.9,0l-169.1-8.5c-2.8-0.2-5.4,1.4-6.6,3.8c-20.1-0.9-40.4-0.5-59.6,0.7
	c-42.6,2.8-75,17.7-96.3,44.2C43,77.4,36.6,92.8,33,106.5H21.5c-3.8,0-6.9,2.8-6.9,6.4v26c0,3.5,3.1,6.4,6.9,6.4H29
	c0.9,39.5,13.7,107.1,59.1,142.4c20.6,16.1,45.9,24.1,75.2,24.1c12.5,0,25.8-1.4,39.7-4.5c87.5-18.4,129.1-74,148.8-117.6
	c15.4-34.3,19.6-65.8,21.1-81.1c4.3-5.9,14.9-10.9,28.9-10.9c13.7,0,24.4,5,28.9,10.9c1.2,15.1,5.7,46.8,21.1,81.1
	c19.4,43.5,61,99.1,148.8,117.6c14,2.8,27.2,4.5,39.7,4.5c29.3,0,54.6-8,75.2-24.1c45.2-35.2,58.2-102.9,59.1-142.4h7.6
	c3.8,0,6.9-2.8,6.9-6.4v-26C788.5,109.3,785.7,106.5,781.9,106.5z M339.6,185.5c-26.7,59.1-73.3,96-138.8,109.7
	c-42.6,9-77.3,3.1-103.4-17.3c-46.1-36-55.6-109.8-54.2-143.8c0.9-22.5,11.6-96,109-102.7c11.4-0.7,23.2-1.2,35.2-1.2
	c62.4,0,130.8,10.9,159.4,37.6c9.2,8.5,13.5,18.2,13.2,29.1c-4.5,5.2-7.1,11.1-7.1,17.7c0,3.3,2.1,6.1,5,7.6
	C355.4,138.2,350.5,161.4,339.6,185.5z M402,81c-10.9,0-20.8,2.4-28.9,6.4c-1.9-10.4-7.3-20.1-16.6-28.6
	c-12.8-11.8-31.9-21.1-54.9-27.4l84.2,4.3c5.4,0.2,11.1,0.5,16.6,0.5c5.7,0,11.1-0.2,16.8-0.5l82.8-4.3
	c-22.7,6.6-41.9,15.6-54.6,27.4c-9,8.5-14.7,18-16.6,28.6C422.9,83.3,412.9,81,402,81z M706.7,278c-26,20.3-60.8,26-103.4,17.3
	c-65.5-13.7-112.4-50.6-138.8-109.7c-10.9-24.1-16.1-47.1-18.4-63.4c2.8-1.4,5-4.3,5-7.6c0-6.6-2.6-12.5-7.1-17.7
	c-0.2-10.9,4-20.6,13.2-29.1c34.1-31.9,124.7-41.2,194.7-36.4c97.7,6.6,108.3,80.2,109,102.7C762,168.2,752.6,242,706.7,278z"/>
</svg>
