<?xml version="1.0" encoding="utf-8"?>
<!-- Generator: Adobe Illustrator 22.1.0, SVG Export Plug-In . SVG Version: 6.00 Build 0)  -->
<svg version="1.1" id="Layer_1" xmlns="http://www.w3.org/2000/svg" xmlns:xlink="http://www.w3.org/1999/xlink" x="0px" y="0px"
	 viewBox="0 0 800 351" style="enable-background:new 0 0 800 351;" xml:space="preserve">
<path d="M709.7,24L709.7,24c-40.7-5.8-78.8,12.4-97.9,23.7l-0.2,0.1c-0.5,0.4-1.3,0.4-1.8,0l-0.2-0.1
	c-19.1-11.3-57.1-29.5-97.9-23.7c-41.3,5.8-69,35.7-75.2,80.4c-11.3-5-24.5-7.6-38.4-7.6c-13.9,0-27,2.6-38.4,7.6
	c-6.2-44.8-33.9-74.6-75.2-80.4c-40.7-5.8-78.8,12.4-97.9,23.7l-0.2,0.1c-0.5,0.4-1.3,0.4-1.8,0l-0.2-0.1
	C165.4,36.3,127.4,18.2,86.6,24c-53.4,7.4-83,54.4-75.5,119.8c3.6,31.1,24.3,73.9,54.2,111.7c14.2,17.8,57.5,72,110.4,82.5l0.7,0.1
	c0.4,0,1.4,0.1,2.6,0.3c3.1,0.3,4,0.4,4.6,0.4c0.3,0,0.3,0,3.2-0.3c1.8-0.2,3.9-0.4,4.3-0.4l0.9-0.1
	c80.6-16,160.3-130.5,167.7-193.9c0.4-3.2,0.6-6.3,0.8-9.3c8.2-6.9,22.3-11.1,37.3-11.1c14.7,0,29.1,4.3,37.3,11.1
	c0.2,3,0.4,6.1,0.8,9.3c3.6,31.1,24.3,73.9,54.2,111.7c14.2,17.8,57.5,72,110.4,82.5l0.7,0.1c0.5,0,2.7,0.2,4.5,0.4
	c2.9,0.3,2.9,0.3,3.2,0.3c0.6,0,1.5-0.1,4.6-0.4c1.2-0.1,2.3-0.3,2.4-0.3l0.9-0.1c80.6-16,160.3-130.5,167.7-193.9
	C792.7,78.8,763.3,31.6,709.7,24z M605.1,311.7c-60.5-13-124.2-101.3-139.3-156.7c2-2.4,3.2-5.5,3.2-8.8c0-7.6-2.4-15-7-22
	c0.1-21.1,5.9-67.3,53.7-74c34-4.7,67.7,12.7,80.6,20.4c9.1,5.5,20.5,5.5,29.6,0c12.9-7.7,46.6-25.1,80.6-20.4
	c45.6,6.5,56.9,51.1,52.3,90.6v0c-6.3,54-79.2,156.8-145.6,170.9l-0.4,0.1c-0.1,0-0.3,0-0.5,0l-0.9,0.1c-0.3,0.1-0.9,0.1-1.9,0.1
	l-0.3,0c-0.8-0.1-1.9-0.2-2.6-0.2c0,0,0,0,0,0c-0.1,0-0.2,0-0.4-0.1C605.7,311.8,605.4,311.7,605.1,311.7z M331,155.3
	c-15.6,54.1-80.5,141.8-141.6,156.1l-0.1,0c-1.4,0.4-3.1,0.6-4.7,0.8l-0.9,0l-0.3,0c-1.6-0.2-3.3-0.4-4.8-0.8
	C112.5,295.7,44,194,37.7,140.9c-7.1-60.3,22.6-86.2,52.8-90.4c34-4.7,67.7,12.7,80.6,20.4c9.1,5.5,20.5,5.5,29.6,0
	c12.9-7.7,46.6-25.1,80.6-20.4c48.1,6.8,53.7,52.9,53.7,74c-4.6,6.8-7,14.4-7,22C327.9,149.8,329,152.9,331,155.3z"/>
</svg>
