<?xml version="1.0" encoding="utf-8"?>
<!-- Generator: Adobe Illustrator 22.1.0, SVG Export Plug-In . SVG Version: 6.00 Build 0)  -->
<svg version="1.1" id="Layer_1" xmlns="http://www.w3.org/2000/svg" xmlns:xlink="http://www.w3.org/1999/xlink" x="0px" y="0px"
	 viewBox="0 0 800 351" style="enable-background:new 0 0 800 351;" xml:space="preserve">
<path d="M780.4,150.9h-12.8C755.7,76.8,691.4,20,614.1,20C540,20,477.7,72.2,462.4,141.7C445,134,424,129.4,402,129.4
	c-22.4,0-43.9,4.6-61.5,12.6C325.2,72.2,262.9,19.8,188.6,19.8C111.3,19.8,47,76.6,35.1,150.7H23.2c-5.3,0-9.6,4.3-9.6,9.6
	c0,5.3,4.3,9.6,9.6,9.6h10.1c0,1.8-0.2,3.7-0.2,5.5c0,85.8,69.8,155.6,155.6,155.6s155.6-69.8,155.6-155.6c0-4.6-0.2-9.2-0.7-13.5
	c15.6-8.5,36.4-13.3,58.3-13.3c21.5,0,41.9,4.6,57.4,12.8c-0.5,4.6-0.7,9.4-0.7,14c0,85.8,69.8,155.6,155.6,155.6
	s155.6-69.8,155.6-155.6c0-1.8,0-3.7-0.2-5.5h11c5.3,0,9.6-4.3,9.6-9.6C790,155.2,785.7,150.9,780.4,150.9z M188.6,311.9
	c-75.3,0-136.3-61.1-136.3-136.3c0-1.8,0-3.7,0.2-5.5c4.8-0.7,8.2-4.6,8.2-9.4c0-4.1-2.7-7.5-6.4-8.9C65.8,88,121.6,39.5,188.6,39.5
	c67.3,0,123.3,49,134.3,113.2c-2.3,1.6-4.3,3.4-6.4,5.3c-3.9,3.7-4.1,9.6-0.5,13.5c1.8,2.1,4.6,3.2,7.1,3.2c0.7,0,1.4,0,1.8-0.2
	c0,0.5,0,0.9,0,1.4C324.9,250.6,263.6,311.9,188.6,311.9z M614.1,311.9c-75.3,0-136.3-61.1-136.3-136.3c0-0.7,0-1.6,0-2.3
	c3.2,0.7,6.6-0.5,9.2-3c3.4-3.9,3.2-10.1-0.9-13.5c-1.8-1.6-3.9-3.2-6.2-4.8C491,88.2,547.1,39.5,614.1,39.5S737.2,88.2,748.4,152
	c-3.2,1.6-5.5,4.8-5.5,8.7c0,4.6,3.2,8.5,7.5,9.4c0,1.8,0.2,3.7,0.2,5.7C750.4,250.6,689.3,311.9,614.1,311.9z"/>
</svg>
