<?xml version="1.0" encoding="UTF-8" standalone="no"?>
<!-- Created with Inkscape (http://www.inkscape.org/) -->

<svg
   width="120mm"
   height="120mm"
   viewBox="-60 -60 120 120"
   sodipodi:docname="glassesall.svg"
   version="1.1"
   id="svg3"
   xml:space="preserve"
   inkscape:version="1.3.2 (091e20e, 2023-11-25, custom)"
   xmlns:inkscape="http://www.inkscape.org/namespaces/inkscape"
   xmlns:sodipodi="http://sodipodi.sourceforge.net/DTD/sodipodi-0.dtd"
   xmlns="http://www.w3.org/2000/svg"
   xmlns:svg="http://www.w3.org/2000/svg"
   xmlns:rdf="http://www.w3.org/1999/02/22-rdf-syntax-ns#"
   xmlns:cc="http://creativecommons.org/ns#"
   xmlns:dc="http://purl.org/dc/elements/1.1/"><defs
     id="defs3" /><sodipodi:namedview
     pagecolor="#ffffff"
     bordercolor="#666666"
     borderopacity="1.0"
     inkscape:pageopacity="0.0"
     inkscape:pageshadow="2"
     inkscape:zoom="1.3704245"
     inkscape:cx="193.73559"
     inkscape:cy="217.81572"
     inkscape:document-units="mm"
     inkscape:current-layer="Template"
     showgrid="false"
     units="mm"
     showguides="true"
     inkscape:guide-bbox="true"
     inkscape:snap-global="true"
     inkscape:snap-bbox="true"
     inkscape:snap-bbox-midpoints="true"
     inkscape:window-width="1920"
     inkscape:window-height="1027"
     inkscape:window-x="-8"
     inkscape:window-y="-8"
     inkscape:window-maximized="1"
     inkscape:bbox-paths="true"
     inkscape:bbox-nodes="true"
     inkscape:snap-bbox-edge-midpoints="true"
     inkscape:snap-grids="true"
     id="namedview1"
     inkscape:showpageshadow="0"
     inkscape:pagecheckerboard="0"
     inkscape:deskcolor="#505050"><sodipodi:guide
       orientation="1,0"
       position="226.771653543,226.771653543"
       id="guide2827"
       inkscape:locked="false" /><sodipodi:guide
       orientation="0,1"
       position="226.771653543,226.771653543"
       id="guide2829"
       inkscape:locked="false" /><inkscape:grid
       type="xygrid"
       id="grid3072"
       empspacing="10"
       visible="false"
       enabled="true"
       snapvisiblegridlinesonly="true"
       units="mm"
       dotted="false"
       spacingx="0.1mm"
       spacingy="0.1mm"
       originx="0"
       originy="0" /></sodipodi:namedview><metadata
     id="metadata2822"><rdf:RDF><cc:Work
         rdf:about=""><dc:format>image/svg+xml</dc:format><dc:type
           rdf:resource="http://purl.org/dc/dcmitype/StillImage" /></cc:Work></rdf:RDF></metadata><g
     inkscape:label="Layer 1"
     inkscape:groupmode="layer"
     id="Template"
     style="fill:none;stroke:black;stroke-width:0.05"><path
       d="M 3.9117863,41.002626 C -5.1735335,36.384549 -13.257503,34.307257 -17.127665,33.54889 c -2.809893,-0.526215 -4.849462,-1.189059 -5.747968,-1.501389 -0.310888,-0.1173 -0.621161,-0.277998 -0.896342,-0.464239 -0.769054,-0.562273 -2.4783,-1.862899 -4.542731,-3.828432 -2.826551,-2.710034 -9.208873,-8.136144 -18.227236,-12.883503 -8.453995,-4.444132 -9.084046,-2.573395 -9.406741,-0.641849 -0.393371,2.321235 1.626901,21.107972 10.038729,25.464676 8.411828,4.356705 16.85986,-3.280583 16.85986,-3.280583 0,0 1.797144,-1.823727 3.618603,-0.781971 0.03448,0.01786 0.146517,0.07588 0.163756,0.08481 1.888418,0.912474 1.449177,3.406707 1.449177,3.406707 0,0 -1.385181,11.306252 7.043884,15.671884 C -8.3456083,59.160634 8.1687389,49.962528 9.8159659,48.30163 11.246319,46.932838 12.428273,45.326089 3.9117863,41.002623 Z M -30.488248,34.061913 c -0.718677,1.387607 -6.881839,7.399122 -14.353922,3.507274 -7.95473,-4.14182 -8.681779,-18.629802 -5.59259,-20.035749 3.089189,-1.405947 13.17421,4.954131 17.51315,9.070516 4.338941,4.116385 2.433362,7.457959 2.433362,7.457959 z m 14.721028,18.576878 c -7.489939,-3.857375 -6.140154,-12.372792 -5.421477,-13.760398 0,0 1.612235,-3.471644 7.486426,-2.298382 5.8741909,1.173261 16.8790691,5.73619 17.5131483,9.070515 0.625771,3.308161 -11.6096675,11.08253 -19.5780973,6.988265 z"
       id="path1"
       style="fill:#a05a2c;stroke-width:0.00485304" /><path
       d="m 47.067787,-49.18629 v 0 c -3.340084,1.468558 -5.360314,4.624799 -6.271179,6.371124 l -0.01039,0.0169 c -0.01897,0.05357 -0.07928,0.09103 -0.135707,0.08429 l -0.01976,0.0018 c -1.969153,0.04245 -5.686325,0.449706 -8.490762,2.797504 -2.842134,2.371212 -3.530406,5.922554 -1.904699,9.582941 -1.086072,0.152175 -2.203007,0.574263 -3.250969,1.225151 -1.047961,0.650888 -1.91386,1.460336 -2.539206,2.371122 -2.565262,-3.087278 -6.049075,-4.036893 -9.434396,-2.540239 -3.340084,1.468559 -5.3603132,4.624799 -6.2711782,6.371124 l -0.0104,0.01691 c -0.01897,0.05357 -0.07928,0.09103 -0.135707,0.08429 l -0.01976,0.0018 c -1.966287,0.03022 -5.678777,0.445019 -8.48321401,2.792819 -3.67946599,3.058441 -3.71025199,7.987971 -0.08235,12.567469 1.72771801,2.176145 5.29252501,4.433653 9.31681401,5.883394 1.9040902,0.67705804 7.7065972,2.735767 12.1865612,1.05027304 l 0.05746,-0.02524 c 0.03016,-0.01873 0.110234,-0.05802 0.210069,-0.09913 0.247765,-0.122546 0.320302,-0.157149 0.365538,-0.185245 0.02262,-0.01405 0.02262,-0.01405 0.227209,-0.172464 0.126341,-0.09937 0.275301,-0.21278004 0.305459,-0.23151104 l 0.06317,-0.04968 c 5.327446,-4.980489 5.97463,-17.345048 3.563739,-22.471475 -0.119688,-0.259988 -0.249771,-0.503072 -0.375172,-0.738616 0.295119,-0.904188 1.161488,-1.881091 2.292382,-2.583489 1.108276,-0.688349 2.395288,-1.03846 3.331929,-0.909766 0.155559,0.216813 0.315799,0.441166 0.495801,0.663693 1.727718,2.176144 5.292524,4.433653 9.316813,5.883393 1.904091,0.677059 7.706599,2.735769 12.186562,1.050274 l 0.05746,-0.02524 c 0.0377,-0.02341 0.212927,-0.111351 0.357997,-0.180561 0.232689,-0.113182 0.232689,-0.113182 0.255306,-0.12723 0.04524,-0.0281 0.108408,-0.07778 0.328079,-0.24556 0.08579,-0.06373 0.159356,-0.130317 0.166893,-0.134998 l 0.06317,-0.04968 c 5.327445,-4.980502 5.974629,-17.345061 3.563736,-22.471485 -2.453593,-5.329754 -6.880354,-7.511601 -11.277297,-5.574687 z m 5.585878,26.58859 c -5.170014,1.852893 -14.10732,-1.821455 -17.83994,-5.291143 0.0384,-0.274596 -0.01629,-0.564506 -0.170816,-0.813302 -0.355881,-0.572986 -0.88334,-1.01851 -1.557933,-1.330859 -0.980498,-1.595473 -2.706603,-5.350219 0.583441,-8.093657 2.343274,-1.946447 5.698796,-2.212663 7.031928,-2.236199 0.943622,-0.01146 1.803101,-0.54528 2.231631,-1.386063 0.612003,-1.184585 2.337965,-4.074475 5.121407,-5.312228 3.742289,-1.645234 6.682693,1.18815 8.185529,4.381573 v 0 c 2.053656,4.366222 1.371272,15.530265 -2.974563,19.702582 l -0.02547,0.02627 c -0.0076,0.0047 -0.02263,0.01405 -0.0377,0.02341 l -0.06317,0.04968 c -0.01793,0.02159 -0.06317,0.04968 -0.138563,0.09651 l -0.02263,0.01405 c -0.065,0.02992 -0.152613,0.07389 -0.205388,0.10667 0,0 0,0 0,0 -0.0076,0.0047 -0.01507,0.0094 -0.03484,0.01119 -0.03302,0.03095 -0.06032,0.03746 -0.08293,0.05151 z m -27.988857,1.043684 c 1.357183,4.809251 0.570865,14.460248 -3.366024,18.399464 l -0.0075,0.0047 c -0.08682,0.09571 -0.205622,0.190397 -0.316886,0.280399 l -0.06785,0.04214 -0.02262,0.01405 c -0.129994,0.05984 -0.267527,0.124369 -0.399347,0.164452 -5.718647,1.91156204 -15.6453133,-2.548285 -18.6067752,-6.256641 -3.358926,-4.213725 -2.33256201,-7.557148 -0.252367,-9.287958 2.3432749,-1.946446 5.698796,-2.212662 7.031928,-2.236198 0.943622,-0.01146 1.8031012,-0.545283 2.2316312,-1.386065 0.612005,-1.184586 2.337965,-4.074475 5.121408,-5.312229 3.944819,-1.739682 6.52572,1.473703 7.513758,3.064494 -0.02839,0.728074 0.146551,1.413443 0.502432,1.986429 0.146988,0.25348 0.375083,0.435688 0.638252,0.522979 z"
       id="path1-1"
       style="fill:#550000;stroke-width:0.00443758" /><path
       d="m -19.456147,-22.658622 v 0 c -4.020399,1.563453 -6.756501,4.985097 -7.488214,8.782583 -0.01599,0.05879 -0.0618,1.261362 -0.999693,1.155368 -1.037259,-0.129634 -2.365822,0.01468 -3.315631,0.366203 -0.949808,0.351522 -2.058858,1.10936 -2.755163,1.880581 -0.622985,0.6836724 -1.465487,-0.205253 -1.510996,-0.226169 -3.032579,-2.419435 -7.33209,-3.222112 -11.401655,-1.791496 v 0 c 0,0 -7.229756,1.890328 -11.780451,5.3265414 0,0 2.267333,5.534567 4.71812,10.2385094 0,0 0,0 0.0049,0.01329 2.475993,5.2005831 8.808362,7.6599212 14.620127,5.5090037 5.878172,-2.1754954 9.087444,-8.2567907 7.471975,-13.8664721 v 0 c 0,0 -0.574389,-1.939677 -0.281685,-2.924013 0.284342,-0.966136 1.896364,-1.487224 1.896364,-1.487224 0,0 1.56286,-0.6539244 2.407658,-0.105682 0.844808,0.548241 1.689793,2.402876 1.689793,2.402876 v 0 c 2.419153,5.312239 8.82087,7.8365354 14.699048,5.661037 5.8184025,-2.153375 9.0239555,-8.142672 7.5110475,-13.6996904 0,0 0,0 -0.0049,-0.01329 -1.188802,-5.170998 -3.070896,-10.848142 -3.070896,-10.848142 -5.7112145,0.361692 -12.4097485,3.626186 -12.4097485,3.626186 z M -39.852243,7.2582858 c -5.366745,1.9862174 -11.238883,-0.5150724 -13.116939,-5.589567 -1.878057,-5.0744954 0.950843,-10.7960154 6.317587,-12.7822328 5.366745,-1.986217 11.238883,0.515072 13.11694,5.5895684 1.878056,5.0744944 -0.950844,10.7960142 -6.317588,12.7822314 z m 27.869874,-10.3145634 c -5.366742,1.9862164 -11.23888,-0.515073 -13.116936,-5.589568 -1.878057,-5.0744954 0.950843,-10.7960154 6.317584,-12.7822314 5.366742,-1.986216 11.2388775,0.515074 13.1169345,5.58957 1.878056,5.074494 -0.950841,10.7960134 -6.3175825,12.7822294 z"
       id="path1-18"
       style="fill:#000000;stroke-width:0.00354116" /><path
       d="M 57.766448,13.722919 56.617933,13.615272 C 56.400427,12.269367 55.919821,10.69261 54.922137,9.1852127 53.090725,6.4116129 50.073109,4.6658012 45.952327,4.0046492 44.096334,3.6932254 42.142702,3.4806742 40.157751,3.392807 40.062838,3.1482642 39.851756,2.9910184 39.550027,2.9627381 L 23.130511,2.25837 C 22.094235,2.2103407 21.052787,2.1127288 20.025633,1.9673588 L 3.6444101,-0.40259242 c -0.270713,-0.045028 -0.538368,0.087007 -0.677066,0.3096491 -1.948142,-0.2709621 -3.92762603,-0.417223 -5.807344,-0.4755722 -4.171859,-0.1160935 -7.4613401,1.0385717 -9.7762461,3.42354982 -1.270157,1.2948392 -2.033561,2.735361 -2.508938,4.0359611 l -1.119307,-0.1049092 c -0.369863,-0.034665 -0.697129,0.2095894 -0.729973,0.5599753 l -0.237188,2.5306217 c -0.03194,0.3406628 0.243351,0.6511998 0.613203,0.6858698 l 0.729981,0.06842 c -0.272664,3.852815 0.356423,10.549193 4.453248,14.399165 1.8581481,1.754963 4.2476691,2.76442 7.0994771,3.031711 1.216649,0.114033 2.523926,0.09909 3.90512297,-0.07582 C 8.2737351,26.993354 12.829953,21.961219 15.145129,17.897277 c 1.811812,-3.197985 2.507968,-6.225616 2.793541,-7.701104 0.472349,-0.5350294 1.549678,-0.9249872 2.91232,-0.797271 1.333442,0.1249798 2.329277,0.709249 2.713445,1.324558 -0.02095,1.480653 0.127852,4.607116 1.313853,8.086078 1.491396,4.410904 5.033175,10.202038 13.410124,12.803639 1.337099,0.400245 2.606367,0.686127 3.82301,0.80016 2.851816,0.267292 5.387287,-0.280559 7.539189,-1.65967 4.720506,-3.013731 6.603415,-9.484486 7.05136,-13.320872 l 0.739718,0.06933 c 0.36986,0.03467 0.697128,-0.20959 0.729973,-0.559976 L 58.40885,14.411523 C 58.3833,14.055656 58.136308,13.757584 57.766448,13.722919 Z M 13.996,17.377185 C 10.858099,22.885907 5.9858211,26.052328 -0.51438193,26.78824 -4.7427989,27.275601 -8.0663809,26.38479 -10.420639,24.161126 -14.579214,20.236635 -14.83061,12.9669 -14.384171,9.6703989 c 0.292738,-2.181761 2.0048,-9.23801232 11.5460311,-9.00159072 1.11597,0.035863 2.26904497,0.094839 3.43702297,0.2043105 C 6.6723611,1.4423686 13.230409,3.1272715 15.770519,5.9869307 c 0.817908,0.9112467 1.147947,1.8945896 1.019313,2.9527654 -0.485431,0.4650739 -0.792316,1.0156118 -0.852525,1.6579989 -0.0301,0.321195 0.148741,0.612883 0.417329,0.785333 -0.389289,1.534499 -1.077859,3.74789 -2.358628,5.994146 z M 21.022803,7.7752841 C 19.96189,7.6758475 18.976413,7.8191292 18.151535,8.1345618 18.06149,7.1049823 17.624383,6.1116002 16.796738,5.1994429 15.65854,3.9341625 13.884349,2.8547352 11.703194,2.0317259 l 8.156093,1.1866501 c 0.523763,0.068746 1.075818,0.1499316 1.611143,0.2001058 0.554789,0.051999 1.082206,0.081777 1.639731,0.1045895 l 8.098283,0.3368261 C 28.938808,4.2952035 26.987937,4.9960341 25.644179,6.0286883 24.690653,6.7739028 24.049196,7.646556 23.767569,8.6609366 23.036052,8.1898098 22.083718,7.8747202 21.022803,7.7752841 Z m 27.85978,21.9539829 c -2.71581,1.738641 -6.154951,1.975962 -10.221906,0.740557 -6.250241,-1.930972 -10.478467,-5.950359 -12.508874,-11.943493 -0.841059,-2.445128 -1.137364,-4.731193 -1.212528,-6.338678 0.285301,-0.110728 0.525886,-0.372913 0.55599,-0.694108 0.06021,-0.642388 -0.139029,-1.240363 -0.529594,-1.7875372 0.07995,-1.0627398 0.577251,-1.9685392 1.550245,-2.7119295 3.61002,-2.7937973 12.513102,-2.8724721 19.282526,-1.7666978 9.449096,1.5336648 9.809385,8.7939695 9.672258,10.9903155 -0.204018,3.329042 -1.79218,10.426361 -6.588117,13.511571 z"
       id="path1-2"
       style="fill:#000000;stroke-width:0.00488792" /><path
       d="m 1.7924585,-47.996871 c -9.7848584,-1.837778 -12.4031865,0.482936 -19.4544155,-1.149747 -7.051237,-1.632685 -8.383079,-4.868045 -17.979882,-7.518009 -9.596793,-2.649962 -17.408684,-3.097387 -17.408684,-3.097387 l -1.124073,4.854643 c 1.156983,0.588793 1.700618,2.902611 1.653103,5.711621 -0.05675,2.806872 -3.0216,14.771533 10.439862,17.781513 13.461452,3.009977 19.168766,-9.165681 20.150577,-11.768084 0.998144,-2.588895 3.297525,-1.852275 3.297525,-1.852275 0,0 2.400499,0.341892 2.147798,3.113118 -0.241327,2.764134 -0.486991,16.214138 12.9274556,19.427164 13.4144461,3.213025 16.0101214,-8.837116 17.1928494,-11.383273 1.182727,-2.546157 2.692289,-4.404013 3.995272,-4.403762 l 1.124072,-4.854644 c 0.03692,0.0085 -7.176599,-3.023098 -16.9614595,-4.860878 z m -43.6398195,14.730939 c -9.680741,-2.455468 -9.750344,-10.134239 -9.129399,-14.453861 0.63727,-4.306116 2.096604,-6.408984 4.76841,-7.112827 3.321649,-0.864548 10.087265,0.993727 10.087265,0.993727 0,0 13.53947,3.135009 11.772904,9.756551 -1.931126,7.3322 -7.890149,13.245549 -17.49918,10.81641 z m 53.528746,0.05437 c -1.320242,4.14798 -4.776252,11.010409 -14.5602433,8.958898 -9.7009327,-2.032278 -12.4430517,-9.970065 -10.9712707,-17.418348 1.339892,-6.710612 14.860904,-3.579878 14.860904,-3.579878 0,0 6.8959759,1.295285 9.497446,3.541031 2.106859,1.820048 2.493406,4.35032 1.173164,8.498297 z"
       id="path1-0"
       style="fill:#000080;stroke-width:0.00473678" /><path
       d="m 57.387061,45.959633 h -0.66937 c -0.62229,-3.874979 -3.98479,-6.845272 -8.02711,-6.845272 -3.87498,0 -7.13289,2.729742 -7.93298,6.364168 -0.90992,-0.402663 -2.00809,-0.643215 -3.15856,-0.643215 -1.17138,0 -2.2957,0.240552 -3.21607,0.658903 -0.8001,-3.650114 -4.05801,-6.390315 -7.94345,-6.390315 -4.04231,0 -7.40481,2.970294 -8.02711,6.845272 h -0.6223 c -0.27716,0 -0.50202,0.224864 -0.50202,0.502021 0,0.277158 0.22486,0.502022 0.50202,0.502022 h 0.52817 c 0,0.09413 -0.0104,0.193487 -0.0104,0.287616 0,4.486817 3.65011,8.136931 8.13693,8.136931 4.48681,0 8.13693,-3.650114 8.13693,-8.136931 0,-0.240552 -0.0105,-0.481104 -0.0366,-0.705967 0.81579,-0.444499 1.9035,-0.695509 3.04874,-0.695509 1.12432,0 2.19111,0.240552 3.00167,0.669362 -0.0262,0.240552 -0.0366,0.491562 -0.0366,0.732114 0,4.486817 3.65012,8.136931 8.13693,8.136931 4.48682,0 8.13693,-3.650114 8.13693,-8.136931 0,-0.09413 0,-0.193487 -0.0105,-0.287616 h 0.57523 c 0.27716,0 0.50202,-0.224864 0.50202,-0.502022 -0.0105,-0.266699 -0.23532,-0.491562 -0.51248,-0.491562 z m -30.94754,8.419318 c -3.93773,0 -7.12765,-3.195158 -7.12765,-7.127659 0,-0.09413 0,-0.193487 0.0105,-0.287616 0.25101,-0.03661 0.42881,-0.240552 0.42881,-0.491563 0,-0.214405 -0.14119,-0.392204 -0.33468,-0.465416 0.60138,-3.336351 3.51938,-5.872605 7.02307,-5.872605 3.51938,0 6.44784,2.562401 7.02307,5.91967 -0.12027,0.08367 -0.22486,0.177799 -0.33468,0.277157 -0.20394,0.193488 -0.2144,0.502022 -0.0262,0.705968 0.0941,0.109817 0.24056,0.16734 0.37129,0.16734 0.0366,0 0.0732,0 0.0941,-0.01046 0,0.02615 0,0.04706 0,0.07321 0,3.906355 -3.20562,7.111971 -7.12766,7.111971 z m 22.25106,0 c -3.93773,0 -7.12766,-3.195158 -7.12766,-7.127659 0,-0.03661 0,-0.08367 0,-0.120276 0.16734,0.03661 0.34514,-0.02615 0.48111,-0.156882 0.17779,-0.203946 0.16734,-0.528168 -0.0471,-0.705967 -0.0941,-0.08367 -0.20395,-0.167341 -0.32422,-0.251011 0.58046,-3.336351 3.51415,-5.883064 7.01784,-5.883064 3.50369,0 6.43738,2.546713 7.02307,5.883064 -0.16734,0.08367 -0.28761,0.251011 -0.28761,0.454957 0,0.240552 0.16733,0.444498 0.3922,0.491563 0,0.09413 0.0104,0.193487 0.0104,0.298075 -0.0104,3.911584 -3.20561,7.1172 -7.13811,7.1172 z"
       id="path1-17"
       style="fill:#000000;stroke-width:0.0026147" /></g></svg>
