<?xml version="1.0" encoding="UTF-8" standalone="no"?>
<svg
   version="1.0"
   width="1012.000000pt"
   height="429.000000pt"
   viewBox="0 0 1012.000000 429.000000"
   preserveAspectRatio="xMidYMid meet"
   id="svg9"
   sodipodi:docname="logosmal.svg"
   inkscape:version="1.3.2 (091e20e, 2023-11-25, custom)"
   xmlns:inkscape="http://www.inkscape.org/namespaces/inkscape"
   xmlns:sodipodi="http://sodipodi.sourceforge.net/DTD/sodipodi-0.dtd"
   xmlns="http://www.w3.org/2000/svg"
   xmlns:svg="http://www.w3.org/2000/svg">
  <defs
     id="defs9" />
  <sodipodi:namedview
     id="namedview9"
     pagecolor="#505050"
     bordercolor="#eeeeee"
     borderopacity="1"
     inkscape:showpageshadow="0"
     inkscape:pageopacity="0"
     inkscape:pagecheckerboard="0"
     inkscape:deskcolor="#505050"
     inkscape:document-units="pt"
     inkscape:zoom="1.007164"
     inkscape:cx="674.66667"
     inkscape:cy="286.44788"
     inkscape:window-width="1920"
     inkscape:window-height="1027"
     inkscape:window-x="-8"
     inkscape:window-y="-8"
     inkscape:window-maximized="1"
     inkscape:current-layer="svg9" />
  <g
     transform="translate(0.000000,429.000000) scale(0.100000,-0.100000)"
     fill="#000000"
     stroke="none"
     id="g9"
     style="fill:#599ee9;fill-opacity:1">
    <path
       d="M1970 3160 l0 -1030 65 0 65 0 0 1030 0 1030 -65 0 -65 0 0 -1030z"
       id="path1"
       style="fill:#599ee9;fill-opacity:1" />
    <path
       d="M835 3801 c-3 -10 -5 -66 -4 -125 1 -58 -1 -109 -5 -113 -4 -4 -39 -13 -78 -20 -84 -14 -214 -74 -282 -131 -108 -90 -200 -237 -237 -379 -28 -108 -28 -288 0 -396 37 -144 126 -285 239 -379 48 -40 193 -118 219 -118 8 0 13 -3 11 -7 -36 -69 -43 -94 -43 -153 0 -59 7 -84 43 -152 2 -5 -3 -8 -12 -8 -8 0 -41 -11 -72 -25 -183 -81 -329 -260 -385 -470 -28 -109 -29 -288 0 -398 30 -115 92 -226 176 -315 107 -113 237 -183 370 -198 l55 -7 0 -128 0 -129 25 -1 c14 -1 36 -1 50 -1 71 0 65 -11 65 130 l0 127 77 13 c265 42 487 276 538 567 19 110 19 170 0 281 -28 160 -89 277 -205 395 -59 59 -95 85 -160 118 -90 44 -202 71 -294 71 -64 0 -113 25 -138 71 -22 41 -23 68 -4 114 22 53 62 71 171 79 213 15 372 100 495 267 104 140 144 271 144 464 -1 180 -46 318 -149 453 -110 146 -231 215 -452 258 -22 4 -23 8 -23 134 l0 130 -64 0 c-55 0 -66 -3 -71 -19z m252 -391 c231 -79 374 -299 374 -575 0 -186 -57 -331 -176 -450 -219 -219 -605 -201 -804 37 -198 237 -185 640 27 855 115 117 246 167 417 159 65 -3 122 -13 162 -26z m-49 -1695 c97 -23 179 -70 252 -144 115 -117 170 -258 171 -436 1 -164 -36 -283 -124 -401 -128 -173 -353 -247 -587 -192 -185 44 -352 228 -396 438 -22 106 -15 260 18 362 30 91 101 202 166 258 56 48 153 98 225 116 71 17 199 17 275 -1z"
       id="path2"
       style="fill:#599ee9;fill-opacity:1" />
    <path
       d="M9565 3772 c-49 -6 -54 -22 -7 -22 l42 0 0 -105 c0 -87 3 -105 15 -105 12 0 15 18 15 105 l0 105 40 0 c38 0 59 19 23 21 -71 4 -102 4 -128 1z"
       id="path3"
       style="fill:#599ee9;fill-opacity:1" />
    <path
       d="M9749 3779 c-4 -12 -5 -205 -1 -221 2 -10 10 -18 18 -18 10 0 14 23 16 92 l3 92 35 -88 c19 -49 40 -91 46 -93 6 -2 28 41 50 94 l39 98 3 -97 c2 -78 6 -98 17 -98 12 0 15 21 15 114 0 117 -4 128 -40 119 -8 -2 -29 -40 -45 -84 -16 -45 -32 -82 -36 -84 -3 -3 -20 34 -38 80 -18 47 -36 85 -41 85 -4 0 -15 3 -24 6 -9 3 -17 5 -17 3z"
       id="path4"
       style="fill:#599ee9;fill-opacity:1" />
    <path
       d="M3015 3540 c-242 -30 -390 -146 -447 -348 -10 -36 -15 -68 -12 -71 10 -11 115 -8 122 3 4 6 14 32 23 58 40 110 125 189 244 225 92 27 279 24 367 -6 160 -54 239 -166 242 -345 l1 -71 -295 -37 c-162 -20 -333 -46 -378 -58 -266 -66 -389 -217 -361 -443 29 -227 194 -346 480 -347 222 0 416 86 525 233 l41 56 6 -102 c3 -56 10 -114 16 -129 10 -27 14 -28 76 -28 36 0 65 1 65 3 0 1 -8 25 -17 52 -14 42 -17 120 -23 510 -6 446 -6 462 -29 525 -56 161 -161 258 -322 299 -92 24 -230 32 -324 21z m545 -785 c0 -187 -35 -278 -150 -390 -107 -103 -223 -146 -395 -146 -226 0 -351 87 -363 254 -6 78 13 138 61 193 64 72 159 111 333 134 43 6 90 13 104 15 14 2 50 7 80 10 30 4 98 12 150 20 52 7 114 13 138 14 l42 1 0 -105z"
       id="path5"
       style="fill:#599ee9;fill-opacity:1" />
    <path
       d="M4555 3539 c-124 -18 -223 -67 -300 -150 -67 -73 -95 -143 -95 -239 0 -138 66 -241 194 -301 42 -19 123 -41 237 -64 223 -44 262 -56 336 -104 44 -28 66 -50 82 -83 25 -53 28 -142 5 -196 -87 -209 -528 -248 -714 -62 -46 46 -87 122 -96 179 l-7 41 -65 0 -65 0 7 -52 c10 -77 66 -189 127 -253 62 -66 161 -118 264 -140 90 -19 250 -19 340 0 143 30 280 125 329 228 66 140 30 332 -78 421 -81 66 -105 74 -346 120 -195 38 -271 63 -333 109 -147 112 -100 323 89 398 51 20 76 23 189 24 120 0 134 -2 186 -26 61 -29 128 -89 154 -138 8 -17 21 -54 29 -83 l13 -53 54 -1 c77 -2 78 -1 67 59 -29 169 -171 317 -343 356 -67 15 -187 20 -260 10z"
       id="path6"
       style="fill:#599ee9;fill-opacity:1" />
    <path
       d="M5912 3539 c-176 -26 -330 -136 -378 -270 -21 -58 -20 -176 2 -242 21 -65 97 -143 174 -179 33 -16 127 -40 238 -62 255 -51 320 -76 388 -148 73 -77 72 -210 -2 -296 -110 -129 -397 -162 -585 -66 -101 51 -189 171 -189 259 0 24 -3 25 -65 25 l-65 0 0 -33 c0 -42 32 -136 65 -192 34 -58 134 -148 197 -178 118 -55 323 -74 470 -42 150 31 274 118 328 229 26 53 31 74 32 147 2 122 -19 178 -96 255 -77 76 -121 94 -354 138 -260 50 -360 95 -401 180 -55 113 -4 248 119 311 102 52 305 60 405 16 91 -40 163 -128 190 -231 l11 -45 58 -1 c69 -2 74 6 57 81 -36 160 -156 282 -321 328 -72 21 -200 28 -278 16z"
       id="path7"
       style="fill:#599ee9;fill-opacity:1" />
    <path
       d="M7430 3543 c-381 -41 -641 -404 -591 -823 22 -181 89 -326 204 -443 73 -74 128 -109 230 -145 66 -24 85 -26 232 -26 152 0 164 1 235 28 163 62 281 169 360 326 51 102 52 100 -29 100 l-71 0 -35 -70 c-106 -211 -352 -313 -601 -250 -99 26 -172 69 -239 143 -84 92 -154 258 -155 363 0 30 1 31 56 38 30 3 296 6 591 6 295 0 538 2 542 5 12 13 0 184 -18 257 -49 191 -177 355 -336 429 -104 49 -258 74 -375 62z m209 -138 c186 -44 328 -194 376 -398 27 -115 91 -102 -511 -100 -289 1 -528 3 -530 6 -10 10 39 165 72 228 113 214 352 320 593 264z"
       id="path8"
       style="fill:#599ee9;fill-opacity:1" />
    <path
       d="M8939 3539 c-84 -7 -131 -20 -203 -56 -66 -33 -152 -116 -185 -178 -23 -45 -26 -61 -26 -155 0 -95 3 -110 27 -156 59 -112 150 -160 403 -210 98 -19 203 -44 233 -54 87 -31 156 -81 181 -132 27 -56 28 -147 2 -203 -87 -193 -480 -236 -690 -77 -50 39 -100 119 -113 185 l-12 57 -63 0 -63 0 0 -30 c0 -45 37 -146 74 -204 97 -150 261 -226 491 -226 181 0 313 44 416 138 93 85 132 204 109 332 -15 80 -40 130 -91 180 -67 64 -131 89 -342 131 -214 42 -288 66 -349 112 -72 55 -83 78 -83 166 0 68 3 83 28 119 37 57 98 99 179 123 99 30 259 24 339 -13 92 -42 163 -131 184 -228 4 -19 12 -38 18 -41 11 -8 107 -3 115 6 10 10 -17 118 -44 173 -14 29 -49 77 -78 106 -107 110 -255 154 -457 135z"
       id="path9"
       style="fill:#599ee9;fill-opacity:1" />
  </g>
</svg>
