<?xml version="1.0" encoding="UTF-8" standalone="no"?>
<!-- Created with Inkscape (http://www.inkscape.org/) -->

<svg
   width="210mm"
   height="297mm"
   viewBox="0 0 210 297"
   version="1.1"
   id="svg1"
   inkscape:version="1.3.2 (091e20e, 2023-11-25, custom)"
   sodipodi:docname="smallogo.svg"
   xmlns:inkscape="http://www.inkscape.org/namespaces/inkscape"
   xmlns:sodipodi="http://sodipodi.sourceforge.net/DTD/sodipodi-0.dtd"
   xmlns="http://www.w3.org/2000/svg"
   xmlns:svg="http://www.w3.org/2000/svg">
  <sodipodi:namedview
     id="namedview1"
     pagecolor="#505050"
     bordercolor="#eeeeee"
     borderopacity="1"
     inkscape:showpageshadow="0"
     inkscape:pageopacity="0"
     inkscape:pagecheckerboard="0"
     inkscape:deskcolor="#505050"
     inkscape:document-units="mm"
     inkscape:zoom="0.74029882"
     inkscape:cx="396.46153"
     inkscape:cy="561.25984"
     inkscape:window-width="1920"
     inkscape:window-height="1027"
     inkscape:window-x="-8"
     inkscape:window-y="-8"
     inkscape:window-maximized="1"
     inkscape:current-layer="layer1" />
  <defs
     id="defs1" />
  <g
     inkscape:label="Слой 1"
     inkscape:groupmode="layer"
     id="layer1">
    <g
       transform="matrix(0.07888552,0,0,-0.07888552,20.602377,308.51284)"
       fill="#000000"
       stroke="none"
       id="g9"
       style="fill:#599ee9;fill-opacity:1">
      <path
         d="m 835,3801 c -3,-10 -5,-66 -4,-125 1,-58 -1,-109 -5,-113 -4,-4 -39,-13 -78,-20 -84,-14 -214,-74 -282,-131 -108,-90 -200,-237 -237,-379 -28,-108 -28,-288 0,-396 37,-144 126,-285 239,-379 48,-40 193,-118 219,-118 8,0 13,-3 11,-7 -36,-69 -43,-94 -43,-153 0,-59 7,-84 43,-152 2,-5 -3,-8 -12,-8 -8,0 -41,-11 -72,-25 C 431,1714 285,1535 229,1325 201,1216 200,1037 229,927 259,812 321,701 405,612 512,499 642,429 775,414 l 55,-7 V 279 150 l 25,-1 c 14,-1 36,-1 50,-1 71,0 65,-11 65,130 v 127 l 77,13 c 265,42 487,276 538,567 19,110 19,170 0,281 -28,160 -89,277 -205,395 -59,59 -95,85 -160,118 -90,44 -202,71 -294,71 -64,0 -113,25 -138,71 -22,41 -23,68 -4,114 22,53 62,71 171,79 213,15 372,100 495,267 104,140 144,271 144,464 -1,180 -46,318 -149,453 -110,146 -231,215 -452,258 -22,4 -23,8 -23,134 v 130 h -64 c -55,0 -66,-3 -71,-19 z m 252,-391 c 231,-79 374,-299 374,-575 0,-186 -57,-331 -176,-450 -219,-219 -605,-201 -804,37 -198,237 -185,640 27,855 115,117 246,167 417,159 65,-3 122,-13 162,-26 z m -49,-1695 c 97,-23 179,-70 252,-144 115,-117 170,-258 171,-436 1,-164 -36,-283 -124,-401 C 1209,561 984,487 750,542 565,586 398,770 354,980 c -22,106 -15,260 18,362 30,91 101,202 166,258 56,48 153,98 225,116 71,17 199,17 275,-1 z"
         id="path2"
         style="fill:#599ee9;fill-opacity:1" />
      <path
         d="m 1485.3826,3891.1464 c -49,-6 -54,-22 -7,-22 h 42 v -105 c 0,-87 3,-105 15,-105 12,0 15,18 15,105 v 105 h 40 c 38,0 59,19 23,21 -71,4 -102,4 -128,1 z"
         id="path3"
         style="fill:#599ee9;fill-opacity:1" />
      <path
         d="m 1684.2759,3890.6998 c -4,-12 -5,-205 -1,-221 2,-10 10,-18 18,-18 10,0 14,23 16,92 l 3,92 35,-88 c 19,-49 40,-91 46,-93 6,-2 28,41 50,94 l 39,98 3,-97 c 2,-78 6,-98 17,-98 12,0 15,21 15,114 0,117 -4,128 -40,119 -8,-2 -29,-40 -45,-84 -16,-45 -32,-82 -36,-84 -3,-3 -20,34 -38,80 -18,47 -36,85 -41,85 -4,0 -15,3 -24,6 -9,3 -17,5 -17,3 z"
         id="path4"
         style="fill:#599ee9;fill-opacity:1" />
    </g>
  </g>
</svg>
